<svg width="137" height="137" viewBox="0 0 137 137" fill="none" xmlns="http://www.w3.org/2000/svg">
<path d="M88.1242 43.9197C84.994 40.7894 84.994 35.7141 88.1242 32.5838L107.124 13.5846C102.672 11.4506 97.6845 10.2555 92.4174 10.2555C73.6029 10.2555 58.3506 25.5077 58.3506 44.3222C58.3506 49.5889 59.5458 54.5767 61.6796 59.0286L13.5755 107.132C9.14855 111.559 9.14855 118.738 13.5755 123.164C18.0024 127.591 25.1799 127.591 29.6069 123.164L77.711 75.06C82.1629 77.1938 87.151 78.3889 92.4174 78.3889C111.232 78.3889 126.484 63.1366 126.484 44.3222C126.484 39.1222 125.319 34.1943 123.236 29.7853L104.281 48.7401C101.15 51.8705 96.0749 51.8705 92.9448 48.7402L88.1242 43.9197Z" stroke="#6CC680" stroke-width="12" stroke-linecap="round" stroke-linejoin="round"/>
</svg>
