<?xml version="1.0" encoding="UTF-8"?>
<svg id="Camada_1" xmlns="http://www.w3.org/2000/svg" version="1.1" viewBox="0 0 364.38 61.9">
  <!-- Generator: Adobe Illustrator 30.6.0, SVG Export Plug-In . SVG Version: 2.1.4 Build 109)  -->
  <defs>
    <style>
      .st0 {
        fill: #f9f9f9;
      }

      .st1 {
        fill: #34c759;
      }
    </style>
  </defs>
  <g>
    <path class="st1" d="M43.43,17.04h-20.35s-14.24,12.21-14.24,26.45c0,8.14,6.13,12.21,10.17,12.21h28.49c4.06,0,10.17-4.07,10.17-12.21,0-14.24-14.24-26.45-14.24-26.45Z"/>
    <path class="st1" d="M43.43,4.83h-5.62c-2.27-2.51-6.14-2.71-8.65-.45-.16.14-.31.29-.45.45h-5.62c-1.13,0-2.03.92-2.03,2.05,0,.25.05.5.14.74l1.89,5.35h20.35l1.89-5.35c.41-1.05-.1-2.23-1.15-2.64-.23-.09-.48-.14-.74-.14Z"/>
  </g>
  <g>
    <g>
      <path class="st1" d="M82.89,55.54c-2.59,0-4.96-.67-7.09-2.02s-3.83-3.36-5.09-6.03c-1.26-2.67-1.88-5.99-1.88-9.97s.65-7.49,1.96-10.16c1.31-2.67,3.02-4.65,5.15-5.93,2.12-1.29,4.41-1.93,6.86-1.93,1.86,0,3.45.32,4.77.96,1.32.64,2.4,1.45,3.25,2.43s1.49,2.01,1.93,3.08h.25V8.26h10.92v46.78h-10.8v-5.68h-.38c-.46,1.05-1.12,2.04-1.99,2.98-.87.94-1.95,1.71-3.23,2.31s-2.83.89-4.63.89ZM86.62,47c1.38,0,2.57-.39,3.56-1.18s1.75-1.89,2.28-3.31c.52-1.42.79-3.09.79-4.99s-.26-3.63-.79-5.04c-.52-1.41-1.28-2.5-2.28-3.27-.99-.76-2.18-1.15-3.56-1.15s-2.59.39-3.56,1.18c-.97.79-1.71,1.88-2.21,3.3-.5,1.41-.75,3.07-.75,4.98s.25,3.54.75,4.98c.5,1.43,1.24,2.54,2.21,3.33.97.79,2.16,1.18,3.56,1.18Z"/>
      <path class="st1" d="M116.64,15.82c-1.55,0-2.88-.52-3.99-1.55-1.11-1.04-1.66-2.28-1.66-3.72s.55-2.71,1.66-3.74c1.11-1.03,2.44-1.54,3.99-1.54s2.91.51,4.02,1.54,1.66,2.28,1.66,3.77-.55,2.68-1.66,3.71-2.45,1.54-4.02,1.54ZM111.17,55.03V19.94h10.96v35.1h-10.96Z"/>
      <path class="st1" d="M140.34,35.01v20.03h-10.96V19.94h10.3l.22,8.85h-.47c.86-2.78,2.2-5.03,4.03-6.73,1.83-1.71,4.29-2.56,7.39-2.56,2.45,0,4.58.54,6.4,1.63,1.82,1.09,3.23,2.63,4.24,4.61s1.51,4.3,1.51,6.94v22.35h-10.96v-20.22c0-1.97-.5-3.51-1.51-4.63-1-1.12-2.41-1.68-4.21-1.68-1.17,0-2.21.26-3.12.77-.91.51-1.62,1.25-2.12,2.21-.5.96-.75,2.13-.75,3.52Z"/>
      <path class="st1" d="M181.18,35.01v20.03h-10.96V8.26h10.74v20.53h-.69c.86-2.78,2.2-5.03,4.03-6.73,1.83-1.71,4.29-2.56,7.39-2.56,2.45,0,4.58.54,6.4,1.63,1.82,1.09,3.23,2.63,4.24,4.61s1.51,4.3,1.51,6.94v22.35h-10.96v-20.22c0-1.97-.5-3.51-1.51-4.63-1-1.12-2.41-1.68-4.21-1.68-1.17,0-2.21.26-3.12.77-.91.51-1.62,1.25-2.12,2.21-.5.96-.75,2.13-.75,3.52Z"/>
      <path class="st1" d="M227.42,55.69c-3.66,0-6.82-.73-9.48-2.18-2.66-1.45-4.69-3.53-6.11-6.23-1.41-2.7-2.12-5.92-2.12-9.67s.71-6.76,2.12-9.48c1.41-2.72,3.42-4.84,6.01-6.36,2.59-1.52,5.65-2.28,9.17-2.28,2.47,0,4.74.39,6.8,1.16,2.06.77,3.85,1.92,5.37,3.44,1.52,1.52,2.69,3.39,3.52,5.6.83,2.22,1.24,4.78,1.24,7.69v2.76h-30.33v-6.37h25.11l-5.12,1.51c0-1.63-.25-3.03-.74-4.21-.49-1.17-1.22-2.07-2.18-2.7-.96-.63-2.16-.94-3.58-.94s-2.63.32-3.61.96c-.98.64-1.73,1.53-2.25,2.67s-.77,2.48-.77,4v4.58c0,1.8.3,3.3.89,4.5.6,1.2,1.43,2.1,2.5,2.7s2.31.89,3.74.89c.98,0,1.88-.14,2.68-.41.8-.27,1.5-.68,2.07-1.22.58-.54,1.01-1.2,1.3-1.98l9.76,1.6c-.59,2.01-1.6,3.76-3.03,5.26-1.43,1.5-3.24,2.65-5.43,3.47-2.19.82-4.7,1.22-7.55,1.22Z"/>
      <path class="st1" d="M255.14,15.82c-1.55,0-2.88-.52-3.99-1.55-1.11-1.04-1.66-2.28-1.66-3.72s.55-2.71,1.66-3.74c1.11-1.03,2.44-1.54,3.99-1.54s2.91.51,4.02,1.54,1.66,2.28,1.66,3.77-.55,2.68-1.66,3.71-2.45,1.54-4.02,1.54ZM249.68,55.03V19.94h10.96v35.1h-10.96Z"/>
      <path class="st1" d="M267.89,55.03V19.94h10.64v6.4h.38c.63-2.32,1.67-4.04,3.12-5.16,1.45-1.12,3.14-1.68,5.07-1.68.5,0,1.03.03,1.58.09.55.06,1.06.16,1.52.28v9.54c-.52-.19-1.21-.33-2.06-.42-.85-.09-1.61-.14-2.28-.14-1.34,0-2.54.3-3.61.89s-1.9,1.42-2.51,2.46c-.61,1.05-.91,2.27-.91,3.67v19.15h-10.96Z"/>
    </g>
    <g>
      <path class="st0" d="M306.6,15.82c-1.55,0-2.88-.52-3.99-1.55-1.11-1.04-1.66-2.28-1.66-3.72s.55-2.71,1.66-3.74c1.11-1.03,2.44-1.54,3.99-1.54s2.91.51,4.02,1.54,1.66,2.28,1.66,3.77-.55,2.68-1.66,3.71-2.45,1.54-4.02,1.54ZM301.13,55.03V19.94h10.96v35.1h-10.96Z"/>
      <path class="st0" d="M335.64,55.69c-3.66,0-6.81-.76-9.45-2.28-2.64-1.52-4.66-3.63-6.08-6.34-1.41-2.71-2.12-5.87-2.12-9.46s.71-6.79,2.12-9.5c1.41-2.71,3.44-4.82,6.08-6.34s5.79-2.28,9.45-2.28,6.81.76,9.45,2.28,4.66,3.63,6.06,6.34c1.4,2.71,2.1,5.88,2.1,9.5s-.7,6.75-2.1,9.46-3.42,4.82-6.06,6.34c-2.64,1.52-5.79,2.28-9.45,2.28ZM335.64,47.31c1.4,0,2.58-.41,3.55-1.22.96-.82,1.69-1.96,2.18-3.42.49-1.46.74-3.17.74-5.12s-.25-3.65-.74-5.1c-.49-1.45-1.22-2.58-2.18-3.37-.96-.8-2.15-1.19-3.55-1.19s-2.58.4-3.55,1.19c-.96.79-1.69,1.92-2.18,3.37-.49,1.46-.74,3.16-.74,5.1s.25,3.65.74,5.12c.49,1.47,1.22,2.61,2.18,3.42s2.15,1.22,3.55,1.22Z"/>
    </g>
    <path class="st0" d="M291.59,55.69c-1.67,0-3.08-.56-4.22-1.68s-1.71-2.52-1.71-4.19.57-3.04,1.71-4.16c1.14-1.12,2.55-1.68,4.22-1.68s3.08.56,4.22,1.68c1.14,1.12,1.71,2.51,1.71,4.16s-.57,3.07-1.71,4.19c-1.14,1.12-2.55,1.68-4.22,1.68Z"/>
  </g>
  <path class="st0" d="M33.44,46.52c-1.49,0-2.78-.22-3.89-.67-1.1-.45-1.96-1.13-2.58-2.04-.62-.91-.94-2.06-.96-3.43h4.07c.04.58.2,1.06.47,1.45.28.39.66.69,1.14.88.48.2,1.05.29,1.7.29.58,0,1.09-.08,1.51-.24.42-.16.75-.38.98-.67.23-.29.34-.62.34-1.01,0-.34-.11-.64-.32-.88-.21-.24-.53-.45-.95-.64-.42-.18-.96-.35-1.62-.49l-1.9-.44c-1.54-.35-2.75-.93-3.63-1.73-.88-.8-1.32-1.87-1.32-3.21,0-1.1.3-2.07.9-2.9s1.42-1.48,2.46-1.94c1.04-.46,2.24-.69,3.59-.69s2.58.23,3.6.7c1.02.47,1.8,1.12,2.36,1.96.56.84.85,1.81.86,2.91h-4.07c-.06-.65-.32-1.15-.79-1.51-.47-.36-1.13-.54-1.98-.54-.56,0-1.03.07-1.42.22-.38.15-.67.35-.86.61-.19.26-.29.56-.29.89,0,.37.11.68.32.93s.52.46.92.63c.4.17.86.31,1.39.43l1.55.36c.86.18,1.63.43,2.31.75s1.25.69,1.71,1.13c.47.44.82.95,1.07,1.52.24.58.37,1.22.37,1.93,0,1.13-.28,2.1-.85,2.91-.56.81-1.37,1.43-2.42,1.87-1.05.43-2.32.65-3.8.65ZM32.71,48.61v-22.53h1.44v22.53h-1.44Z"/>
</svg>